<?xml version="1.0" encoding="UTF-8"?>
<svg xmlns="http://www.w3.org/2000/svg" viewBox="0 0 1024 1536" width="1024" height="1536" role="img" aria-label="Sworn or Just Signed?">
  <title>Sworn or Just Signed?</title>
  <!-- Transparent full-card overlay; visible artwork stays inside the title banner safe area. -->
  <g transform="translate(385.904 196.000) scale(0.071000 -0.071000)"><g fill="#c92f2e" stroke="#111315" stroke-width="5.5" stroke-linejoin="round" stroke-linecap="round" paint-order="stroke fill" vector-effect="non-scaling-stroke"><path d="M171 -2Q131 -2 91.0 19.5Q51 41 14 88L88 233Q99 214 120.5 197.0Q142 180 166.0 170.0Q190 160 207 160Q233 160 256.5 176.0Q280 192 280 219Q280 254 248.0 283.0Q216 312 176 340Q137 368 104.5 403.5Q72 439 72 485Q72 537 102.0 581.5Q132 626 180.0 659.5Q228 693 282.5 711.5Q337 730 386 730Q421 730 451.0 718.5Q481 707 499.0 681.0Q517 655 517 611Q517 604 516.5 597.0Q516 590 515 583Q514 576 512.5 568.5Q511 561 510 553L365 511Q367 519 368.5 527.0Q370 535 370 543Q370 573 359.5 586.5Q349 600 332 600Q323 600 306.0 590.5Q289 581 275.5 564.5Q262 548 262 528Q262 495 289.5 473.5Q317 452 353 430Q370 420 391.0 398.5Q412 377 427.5 340.5Q443 304 443 247Q443 173 406.5 117.0Q370 61 308.0 29.5Q246 -2 171 -2Z" transform="translate(0 0)"/><path d="M41 -4 117 706Q140 707 162.5 709.5Q185 712 206 716Q226 720 247.0 722.5Q268 725 288 726L285 706Q284 696 281.5 683.5Q279 671 277 655Q272 620 265.0 575.0Q258 530 249 475Q243 441 235.5 393.0Q228 345 218 284H233Q246 330 257.0 368.0Q268 406 276 435Q284 464 291.5 487.5Q299 511 304 530Q325 604 338.0 651.0Q351 698 355 712H364Q390 712 418.5 716.0Q447 720 470 725Q469 721 466.0 692.0Q463 663 459.0 621.0Q455 579 451 534Q444 449 438.5 386.0Q433 323 429 284H447L542 714L609 723Q623 725 638.0 727.0Q653 729 669 731Q698 735 724 740Q694 656 664.0 542.0Q634 428 604 311Q588 247 572.5 181.5Q557 116 542 48L316 10L360 396H348L249 33Z" transform="translate(430 0)"/><path d="M181 -4Q115 -4 73.0 47.0Q31 98 31 201Q31 258 45.0 321.0Q59 384 84.0 445.0Q109 506 142 558Q195 642 264.0 695.0Q333 748 409 748Q469 748 501.5 717.5Q534 687 547.0 639.5Q560 592 560 541Q560 422 523.5 319.5Q487 217 429 146Q371 73 305.5 34.5Q240 -4 181 -4ZM235 161Q280 161 314.5 191.0Q349 221 373.0 267.5Q397 314 409.0 365.0Q421 416 421 457Q421 473 418.0 491.5Q415 510 405.0 524.0Q395 538 374 538Q328 538 291.0 504.5Q254 471 229 420Q204 368 192.0 318.0Q180 268 180 227Q180 206 195.0 183.5Q210 161 235 161Z" transform="translate(1031 0)"/><path d="M4 -1 56 259Q68 331 82.0 407.0Q96 483 108.5 557.0Q121 631 128 696Q185 714 251.0 722.5Q317 731 382 731Q458 731 485.5 698.0Q513 665 513 609Q513 558 489.0 506.5Q465 455 426.5 413.5Q388 372 342 348Q360 308 380.5 260.5Q401 213 419 170Q429 145 439.5 120.0Q450 95 460 70L305 16L269 136Q254 186 241.5 232.5Q229 279 227 298L214 294Q211 278 207.5 259.5Q204 241 200 219Q196 197 192.0 176.5Q188 156 184 136L166 41ZM239 433Q257 435 283.5 448.5Q310 462 336.5 482.0Q363 502 381.0 523.0Q399 544 399 560Q399 580 375.5 586.5Q352 593 314 593H292Q286 592 281.0 592.0Q276 592 271 592Z" transform="translate(1524 0)"/><path d="M5 -5Q35 139 62 274Q84 401 105.0 518.0Q126 635 135 733Q142 732 147.5 732.0Q153 732 157 732H178Q204 732 236.0 733.5Q268 735 295 736Q302 701 308.5 667.0Q315 633 320 601Q325 573 331.0 543.5Q337 514 343 484Q348 454 353.5 428.5Q359 403 363 382Q375 441 385.5 498.0Q396 555 406 601L435 735L557 750Q540 674 525.0 601.0Q510 528 497 460Q472 338 453.0 230.0Q434 122 424 42Q435 42 420.5 39.5Q406 37 378.0 32.5Q350 28 318.0 21.0Q286 14 261 4Q258 44 255.0 82.0Q252 120 248 156Q242 220 234.0 283.0Q226 346 218 383Q211 339 201.0 282.5Q191 226 179 169L151 29Z" transform="translate(1968 0)"/></g><g fill="#111315" stroke="#111315" stroke-width="5.5" stroke-linejoin="round" stroke-linecap="round" paint-order="stroke fill" vector-effect="non-scaling-stroke"><path d="M181 -4Q115 -4 73.0 47.0Q31 98 31 201Q31 258 45.0 321.0Q59 384 84.0 445.0Q109 506 142 558Q195 642 264.0 695.0Q333 748 409 748Q469 748 501.5 717.5Q534 687 547.0 639.5Q560 592 560 541Q560 422 523.5 319.5Q487 217 429 146Q371 73 305.5 34.5Q240 -4 181 -4ZM235 161Q280 161 314.5 191.0Q349 221 373.0 267.5Q397 314 409.0 365.0Q421 416 421 457Q421 473 418.0 491.5Q415 510 405.0 524.0Q395 538 374 538Q328 538 291.0 504.5Q254 471 229 420Q204 368 192.0 318.0Q180 268 180 227Q180 206 195.0 183.5Q210 161 235 161Z" transform="translate(2615 0)"/><path d="M4 -1 56 259Q68 331 82.0 407.0Q96 483 108.5 557.0Q121 631 128 696Q185 714 251.0 722.5Q317 731 382 731Q458 731 485.5 698.0Q513 665 513 609Q513 558 489.0 506.5Q465 455 426.5 413.5Q388 372 342 348Q360 308 380.5 260.5Q401 213 419 170Q429 145 439.5 120.0Q450 95 460 70L305 16L269 136Q254 186 241.5 232.5Q229 279 227 298L214 294Q211 278 207.5 259.5Q204 241 200 219Q196 197 192.0 176.5Q188 156 184 136L166 41ZM239 433Q257 435 283.5 448.5Q310 462 336.5 482.0Q363 502 381.0 523.0Q399 544 399 560Q399 580 375.5 586.5Q352 593 314 593H292Q286 592 281.0 592.0Q276 592 271 592Z" transform="translate(3108 0)"/></g></g>
<g transform="translate(334.724 292.000) scale(0.079000 -0.079000)"><g fill="#17669b" stroke="#111315" stroke-width="5.5" stroke-linejoin="round" stroke-linecap="round" paint-order="stroke fill" vector-effect="non-scaling-stroke"><path d="M105 -1Q77 -1 44.5 11.0Q12 23 -27 52L42 206Q47 196 61.5 188.5Q76 181 93 181Q106 181 116.0 202.0Q126 223 132.5 253.0Q139 283 143.0 309.5Q147 336 148 347Q158 396 167.0 444.0Q176 492 184 541Q192 589 202.5 637.0Q213 685 224 733Q269 737 312.5 745.5Q356 754 400 766Q385 715 369.0 650.5Q353 586 338.0 517.0Q323 448 309.5 383.0Q296 318 286 266Q277 224 264.0 177.5Q251 131 230.0 90.5Q209 50 178.5 24.5Q148 -1 105 -1Z" transform="translate(0 0)"/><path d="M165 -18Q135 -18 104.0 -5.0Q73 8 52.0 35.0Q31 62 31 104V112Q31 117 32 120Q35 146 40.5 188.0Q46 230 54.0 279.5Q62 329 70.5 378.0Q79 427 86 467Q101 547 110.0 596.0Q119 645 124.5 671.5Q130 698 133 711Q144 712 156.5 713.5Q169 715 183 716Q197 718 210.5 719.0Q224 720 237 721L298 727Q285 666 273.5 611.5Q262 557 252 508L206 287Q200 262 197 245Q193 229 188.5 204.5Q184 180 184 160Q184 144 192.0 133.5Q200 123 212 123Q229 123 240.0 136.0Q251 149 258.0 168.0Q265 187 269.0 206.5Q273 226 276 238Q286 284 294.5 327.5Q303 371 312.5 420.0Q322 469 334 533Q342 577 350.5 622.5Q359 668 367 715L519 725Q519 725 510.0 677.0Q501 629 484 532Q477 495 468.5 449.0Q460 403 450.0 356.0Q440 309 431.5 267.0Q423 225 416 195Q396 113 354.0 66.5Q312 20 261.5 1.0Q211 -18 165 -18Z" transform="translate(279 0)"/><path d="M171 -2Q131 -2 91.0 19.5Q51 41 14 88L88 233Q99 214 120.5 197.0Q142 180 166.0 170.0Q190 160 207 160Q233 160 256.5 176.0Q280 192 280 219Q280 254 248.0 283.0Q216 312 176 340Q137 368 104.5 403.5Q72 439 72 485Q72 537 102.0 581.5Q132 626 180.0 659.5Q228 693 282.5 711.5Q337 730 386 730Q421 730 451.0 718.5Q481 707 499.0 681.0Q517 655 517 611Q517 604 516.5 597.0Q516 590 515 583Q514 576 512.5 568.5Q511 561 510 553L365 511Q367 519 368.5 527.0Q370 535 370 543Q370 573 359.5 586.5Q349 600 332 600Q323 600 306.0 590.5Q289 581 275.5 564.5Q262 548 262 528Q262 495 289.5 473.5Q317 452 353 430Q370 420 391.0 398.5Q412 377 427.5 340.5Q443 304 443 247Q443 173 406.5 117.0Q370 61 308.0 29.5Q246 -2 171 -2Z" transform="translate(698 0)"/><path d="M90 -1Q101 54 112.5 108.5Q124 163 134 216Q172 406 196 580Q185 582 173.0 582.5Q161 583 150 582Q126 580 103 588Q104 596 104.0 605.5Q104 615 104 625Q104 636 104.0 646.5Q104 657 105 667Q106 678 106.0 690.5Q106 703 107 716Q133 714 159.0 713.0Q185 712 211 712Q285 712 352.5 717.0Q420 722 477 729L466 675L457 628Q452 602 448 587Q437 584 426.0 582.0Q415 580 404 579Q393 578 381.5 576.0Q370 574 359 572Q344 498 334.5 444.0Q325 390 317.5 340.5Q310 291 300 232Q283 131 270 27Z" transform="translate(1128 0)"/><path d="M171 -2Q131 -2 91.0 19.5Q51 41 14 88L88 233Q99 214 120.5 197.0Q142 180 166.0 170.0Q190 160 207 160Q233 160 256.5 176.0Q280 192 280 219Q280 254 248.0 283.0Q216 312 176 340Q137 368 104.5 403.5Q72 439 72 485Q72 537 102.0 581.5Q132 626 180.0 659.5Q228 693 282.5 711.5Q337 730 386 730Q421 730 451.0 718.5Q481 707 499.0 681.0Q517 655 517 611Q517 604 516.5 597.0Q516 590 515 583Q514 576 512.5 568.5Q511 561 510 553L365 511Q367 519 368.5 527.0Q370 535 370 543Q370 573 359.5 586.5Q349 600 332 600Q323 600 306.0 590.5Q289 581 275.5 564.5Q262 548 262 528Q262 495 289.5 473.5Q317 452 353 430Q370 420 391.0 398.5Q412 377 427.5 340.5Q443 304 443 247Q443 173 406.5 117.0Q370 61 308.0 29.5Q246 -2 171 -2Z" transform="translate(1685 0)"/><path d="M5 1Q19 59 33.0 132.5Q47 206 61.0 285.0Q75 364 87 437Q98 501 108.5 567.0Q119 633 129 700L285 725L240 462Q225 369 213.5 295.0Q202 221 191.5 155.0Q181 89 170 20Q151 20 124.0 17.5Q97 15 70.0 11.5Q43 8 24.5 5.0Q6 2 5 1Z" transform="translate(2115 0)"/><path d="M223 -24Q186 -24 152.5 -8.0Q119 8 95 41Q70 73 56.0 122.0Q42 171 42 237Q42 366 79.0 462.0Q116 558 173 622Q229 686 293.5 717.0Q358 748 414 748Q468 748 502.0 724.5Q536 701 552.0 662.0Q568 623 568 575L431 549Q422 589 407.0 606.0Q392 623 373 623Q351 623 327.5 599.0Q304 575 281.5 534.5Q259 494 241.0 444.0Q223 394 211.5 341.0Q200 288 198 241Q198 179 216.5 152.5Q235 126 264 126Q292 126 319.5 144.0Q347 162 365.5 192.5Q384 223 385 261L278 245L297 344L389 356Q427 361 469.5 368.0Q512 375 544 381Q537 279 504.5 202.5Q472 126 424.0 76.0Q376 26 323.5 1.0Q271 -24 223 -24Z" transform="translate(2317 0)"/><path d="M5 -5Q35 139 62 274Q84 401 105.0 518.0Q126 635 135 733Q142 732 147.5 732.0Q153 732 157 732H178Q204 732 236.0 733.5Q268 735 295 736Q302 701 308.5 667.0Q315 633 320 601Q325 573 331.0 543.5Q337 514 343 484Q348 454 353.5 428.5Q359 403 363 382Q375 441 385.5 498.0Q396 555 406 601L435 735L557 750Q540 674 525.0 601.0Q510 528 497 460Q472 338 453.0 230.0Q434 122 424 42Q435 42 420.5 39.5Q406 37 378.0 32.5Q350 28 318.0 21.0Q286 14 261 4Q258 44 255.0 82.0Q252 120 248 156Q242 220 234.0 283.0Q226 346 218 383Q211 339 201.0 282.5Q191 226 179 169L151 29Z" transform="translate(2816 0)"/><path d="M8 -1 139 710 455 737Q448 715 443 692Q438 673 433.5 652.5Q429 632 426 616Q413 615 389.0 614.5Q365 614 340.0 613.5Q315 613 297.0 613.0Q279 613 278 613L243 434L301 437Q312 438 323.5 438.0Q335 438 346 438Q357 438 366.0 438.0Q375 438 380 439Q378 425 376.5 411.5Q375 398 373 384L364 329Q359 328 351.0 328.0Q343 328 332 328Q321 327 309.0 327.0Q297 327 286 326Q273 325 259.0 325.0Q245 325 229 324L195 140L341 163L331 49Z" transform="translate(3268 0)"/><path d="M60 -5Q46 -5 32.0 -3.5Q18 -2 4 0L57 269Q67 324 78.5 385.5Q90 447 101.0 507.5Q112 568 120.5 620.0Q129 672 134 708Q177 716 221.0 723.0Q265 730 311 730Q385 730 428.0 699.5Q471 669 490.0 619.5Q509 570 509 511Q509 458 494.0 399.5Q479 341 451.5 283.5Q424 226 386 175Q327 96 242.5 45.5Q158 -5 60 -5ZM179 121Q214 144 245.5 191.0Q277 238 305 304Q330 365 344.0 419.5Q358 474 358 510Q358 547 337.5 568.0Q317 589 273 589Q257 503 240.5 430.0Q224 357 208.5 283.0Q193 209 179 121Z" transform="translate(3609 0)"/><path d="M149 236Q149 290 164.5 332.5Q180 375 204.0 408.0Q228 441 253 465Q291 502 323.0 530.0Q355 558 355 580Q355 586 347.0 596.5Q339 607 322 607Q304 607 276.0 592.0Q248 577 218.0 554.5Q188 532 162 508L109 631Q160 677 224.0 703.5Q288 730 354 730Q395 730 431.0 718.0Q467 706 489.5 678.0Q512 650 512 602Q512 533 479.5 487.5Q447 442 404 410Q359 377 319.5 339.0Q280 301 267 248ZM174 -23Q134 -23 115.0 1.5Q96 26 96 60Q96 86 109.0 111.0Q122 136 147.0 153.0Q172 170 208 170Q263 170 288.5 146.0Q314 122 314 91Q314 63 297.5 36.5Q281 10 249.5 -6.5Q218 -23 174 -23Z" transform="translate(4050 0)"/></g></g>
</svg>
